<svg xmlns="http://www.w3.org/2000/svg" fill="none" viewBox="0 0 675 356">
  <path fill="#00C58E" fill-rule="evenodd" d="M474.128 350.68c-108.237 22.312-178.461-41.938-321.417-41.938-48.851 0-166.93 27.509-148.648-142.483C14.438 69.795 126.258 26.016 230.755 82.398c30.75 12.025 55.027 8.298 81.385-3.65C338.498 66.8 372.398 13.46 436.29 2.486c192.271-33.022 405.142 272.48 37.838 348.194z" clip-rule="evenodd"/>
  <path fill="#fff" fill-rule="evenodd" d="M470.187 132.653c7.535 4.962 15.101 10.211 23.773 12.703 8.671 2.492 18.862 1.73 25.539-4.338 26.947-24.483 70.342-28.577 101.391-9.565 31.05 19.013 47.132 59.526 37.574 94.657-9.557 35.132-43.946 61.914-80.348 62.577-18.861.343-36.302 9.359-54.325 14.932-18.022 5.572-39.698 7.002-53.792-5.536-15.191-13.514-13.457-41.36 3.293-52.884l-78.966 5.917c5.79 2.347 11.954 5 15.273 10.293 3.319 5.293 1.797 13.951-4.249 15.524-22.516 5.857-45.571-4.816-67.183-13.431-21.612-8.615-47.655-14.942-66.927-1.908-43.432 29.375-100.812 24.498-152.541 15.933-12.41-2.055-27.338-6.576-29.919-18.887a345.972 345.972 0 01-72.137 5.869c-5.898-.139-12.86-1.068-15.617-6.284-3.571-6.759 2.84-14.427 9.084-18.837 19.068-13.468 42.347-20.877 65.691-20.909 6.65-.009 11.089-6.957 12.782-13.388 1.693-6.43 2.167-13.585 6.485-18.642-14.683-2.204-30.237 2.278-41.496 11.957-2.09 1.797-5.617-.007-6.494-2.619-.877-2.612.027-5.454.954-8.049 5.195-14.529 11.709-29.291 23.515-39.225 11.806-9.934 30.253-13.517 42.699-4.397 3.904 2.861 10.534 6.533 19.888 11.017 9.591-1.45 16.722-2.605 21.394-3.464 14.149-2.601 27.268-9.026 40.093-15.543 44.691-22.707 90.514-47.988 140.623-49.414 47.936-1.364 93.891 19.565 133.943 45.941zm50.713 39.365l4.496 11.325c.221.555.459 1.136.923 1.511.564.456 1.336.517 2.053.62 5.496.792 9.803 4.965 13.699 8.922l14.969 15.208c1.495 1.519 3.979-.124 5.411-1.703 3.217-3.55 6.495-7.192 8.353-11.609 1.857-4.416 2.058-9.833-.711-13.743-1.645-2.323-4.151-3.89-6.72-5.118a40.082 40.082 0 00-13.518-3.737c-4.562-.427-9.157-.068-13.74-.102a80.162 80.162 0 01-15.215-1.574z" clip-rule="evenodd"/>
  <path fill="#E7EAEE" fill-rule="evenodd" d="M88.78 258.64a345.973 345.973 0 01-72.137 5.869c-6.953-10.133 68.292-28.803 71.02-16.495 2.158 9.733 2.257 16.062 1.117 10.626zM453.175 225.811c2.538-.272 12.625-2.744 23.215-1.598 5.691-2.922 32.965-.627 49.246 2.563 10.45 2.047 36.935 3.408 46.553 8.314 16.695 8.516 17.078 13.78 14.566 14.908-7.136 3.202-15.733 4.781-20.354 4.866-8.319.151-25.056-7.539-43.415-12.356-8.199-2.152-14.224-3.979-18.972-5.752l.775-.339c-10.27 4.636-20.894 5.375-31.497 8.782l-78.966 5.917c5.79 2.347-81.317-29.368-56.159-33.995 1.551-.285 3.26-.459 5.114-.536 23.56-.988 70.371 13.45 109.894 9.226z" clip-rule="evenodd"/>
  <path fill="#00160A" fill-rule="evenodd" d="M218.104 186.659c.321.574.078 1.337-.404 1.784-.482.447-1.145.64-1.791.761-4.759.893-9.958-1.703-12.103-6.043-.239-.484-.448-1.015-.375-1.55.073-.535.522-1.052 1.061-1.02 1.385 1.528 2.791 3.074 4.516 4.205 1.724 1.131 3.833 1.82 5.862 1.447 1.151-.211 2.662-.605 3.234.416zM221.223 245.866c.067-1.34 1.746-1.9 3.087-1.949 6.006-.223 11.6 2.722 17.148 5.035s12.008 4.02 17.426 1.417c1.131-.544 2.316-1.286 3.543-1.024-2.035 3.948-6.9 5.74-11.334 5.497-4.435-.244-8.591-2.119-12.679-3.853-4.089-1.734-8.391-3.384-12.825-3.136-.91.051-1.841.179-2.718-.068-.876-.248-1.694-1.009-1.648-1.919zM231.738 257.108c-4.143-1.209-8.988-.604-12.391-3.259-.416-.324-.826-.75-.843-1.277-.022-.739.774-1.28 1.513-1.299.739-.019 1.433.318 2.127.573 2.534.931 5.323.806 7.968 1.345 3.968.809 7.462 3.071 11.2 4.63 3.737 1.559 8.22 2.357 11.7.286 1.404-.835 3.249-2.082 4.413-.936-3.789 4.316-10.203 6.115-15.683 4.398-3.49-1.093-6.493-3.437-10.004-4.461zM112.328 213.414c-.666-.852-.66-2.088-.235-3.082.425-.995 1.205-1.791 2.012-2.511 3.829-3.42 9.128-5.735 14.098-4.45 3.725.964 6.673 3.756 9.281 6.585 1.116 1.211 2.269 2.946 1.433 4.365-.893 1.517-3.135 1.196-4.833.735-5.27-1.429-10.857-2.271-16.183-1.065-1.932.437-4.353.984-5.573-.577zM198.653 264.765c.734.444.633 1.63.021 2.231-.612.602-1.514.775-2.36.92l-14.225 2.439c-.99.17-2.097.316-2.922-.256-.826-.572-.85-2.163.133-2.37a243.016 243.016 0 0117.96-3.093c.471-.063.985-.117 1.393.129zM186.553 215.221c-1.043.387-2.196-.62-2.336-1.724-.141-1.104.43-2.172 1.091-3.067 3.075-4.164 8.556-6.297 13.694-5.656 5.138.64 9.804 3.895 12.503 8.314.417.681.803 1.465.645 2.248-.171.847-.964 1.462-1.803 1.672-.839.21-1.722.089-2.575-.058-3.547-.613-7.006-1.676-10.557-2.273-3.55-.597-7.287-.708-10.662.544zM119.505 186.721c.404-1.182 2.113-.89 3.338-.647 3.819.758 7.554-1.371 10.867-3.416.442-.273 1.031.246 1.021.765-.01.52-.384.953-.749 1.322-3.303 3.338-8.242 5.622-12.708 4.169-.998-.325-2.108-1.2-1.769-2.193zM252.149 206.951c-1.288-.245-1.956-1.809-1.715-3.098.241-1.289 1.116-2.353 1.942-3.372 3.12-3.848 5.964-7.94 8.205-12.359 1.927-3.8 3.404-7.829 5.57-11.498 6.201-10.496 18.227-17.282 30.417-17.163-4.885-3.497-10.66-5.565-16.51-6.934-18.093-4.233-37.643-1.936-54.263 6.376-2.627 1.314-5.189 2.775-7.929 3.834-1.263.489-2.661.892-3.955.492-1.295-.4-2.311-1.925-1.709-3.138.347-.7 1.095-1.091 1.795-1.437 7.081-3.494 14.191-7 21.696-9.453 16.79-5.487 35.341-5.431 52.098.156 5.622 1.874 11.498 4.787 13.932 10.191.374.829.408 2.154-.491 2.29-9.656 1.455-19.481 4.796-26.146 11.933-8.632 9.243-10.722 23.436-20.083 31.94-.797.724-1.796 1.442-2.854 1.24z" clip-rule="evenodd"/>
  <path fill="#00160A" fill-rule="evenodd" d="M394.326 251.116c5.79 2.347 11.954 5 15.273 10.293 3.319 5.293 1.797 13.951-4.249 15.524-22.516 5.857-45.571-4.816-67.183-13.431-21.612-8.615-47.655-14.942-66.927-1.908-43.432 29.375-100.812 24.498-152.541 15.933-12.41-2.055-27.338-6.576-29.919-18.887a345.972 345.972 0 01-72.137 5.869c-5.898-.139-12.86-1.068-15.617-6.284-3.571-6.759 2.84-14.427 9.084-18.837 19.068-13.468 42.347-20.877 65.691-20.909 6.65-.009 11.089-6.957 12.782-13.388 1.693-6.43 2.167-13.585 6.485-18.642-14.683-2.204-30.237 2.278-41.496 11.957-2.09 1.797-5.617-.007-6.494-2.619-.877-2.612.027-5.454.954-8.049 5.195-14.529 11.709-29.291 23.515-39.225 11.806-9.934 24.874-13.704 42.618-5.624 4.647 2.116 11.284 5.876 19.91 11.279 9.534-.789 16.685-1.622 21.453-2.499 14.149-2.601 27.268-9.026 40.093-15.543 44.691-22.707 90.514-47.988 140.623-49.414 47.936-1.364 93.891 19.565 133.943 45.941 7.535 4.962 15.101 10.211 23.773 12.703 8.671 2.492 18.862 1.73 25.539-4.338 26.947-24.483 70.342-28.577 101.391-9.565 31.05 19.013 47.132 59.526 37.574 94.657-9.557 35.132-43.946 61.914-80.348 62.577-18.861.343-36.302 9.359-54.325 14.932-18.022 5.572-39.698 7.002-53.792-5.536-15.191-13.514-13.457-41.36 3.293-52.884l-78.966 5.917zm152.364-48.561c-13.283-13.361-33.101-19.894-51.726-17.052a62.312 62.312 0 0128.01-2.047c-26.445-38.19-69.124-62.044-112.624-78.34-21.14-7.92-43.155-14.43-65.724-14.927-29.381-.65-58.016 8.9-85.154 20.178-29.786 12.378-58.598 26.958-87.378 41.523 8.88-.454 17.88 3.448 23.619 10.239-24.106-9.94-52.659-8.407-75.562 4.056.11-4.553 3.749-8.774 8.236-9.553-13.105-11.547-33.24-14.35-49-6.821-15.761 7.529-26.234 24.952-25.487 42.403 13.31-11.008 32.508-14.413 48.792-8.652-9.692 16.173-14.696 35.12-14.253 53.969 5.093-2.145 11.37-1.136 15.533 2.498l-13.957 1.501.59 6.368 14.768-2.177a21.095 21.095 0 01-12.4 6.915c-.599 6.064 3.61 11.786 8.892 14.826 5.281 3.04 11.484 3.946 17.518 4.796l45.118 6.356c-3.488-3.933-4.059-10.267-6.336-14.646-2.949-5.672-7.208-7.982-9.343-15.506-.736-2.596-2.434-6.251-.058-7.902.998-.693 2.297-.72 3.513-.721l14.893-.016c1.605-.001 3.282.014 4.7.764 4.297 2.273 2.94 8.986-.269 12.637s-7.797 6.567-8.893 11.302c-1.126 4.865 2.149 9.908 6.499 12.36 4.349 2.452 9.525 2.867 14.515 3.038 10.518.36 21.064-.128 31.504-1.456 26.281-3.344 54.281-14.053 66.479-37.571-.738 5.928-3.835 11.53-8.464 15.306 19.147-7.053 40.831-6.974 59.927.218 18.11 6.821 35.293 19.994 54.499 17.63-.823-.668-1.142-1.821-1.965-2.489-2.241-1.817-4.985-3.148-7.226-4.965l20.544 7.515c-.778-1.139 0-2.288-1.449-4.031-1.448-1.742-4.612-4.85-6.476-7.581 5.186 1.509 9.731 5.108 12.389 9.81l6.648-1.627c-11.251-15.187-26.806-27.15-44.373-34.126-8.523-3.384-19.089-7.435-20.155-16.543 19.157 18.5 46.61 26.392 73.236 26.956 26.626.563 52.898-5.486 78.842-11.5A52.265 52.265 0 01482 223.31c29.139 16.326 61.742 26.435 95.006 29.459l-5.66-9.594c4.126.117 7.982 3.247 8.945 7.261l6.208-2.444-8.634-8.466c4.63-1.116 9.824 2.455 10.441 7.177a10.318 10.318 0 004.488-4.618l-10.326-7.816c5.218-.106 10.454 1.639 14.564 4.855-4.862-11.821-21.315-12.103-32.244-18.732-7.269-4.41-12.104-11.808-18.098-17.837zm-24.742-33.964c6.501 1.576 13.308.355 19.997.375 6.931.021 13.834 1.396 20.328 3.817 4.008 1.494 8.015 3.502 10.621 6.895 4.131 5.378 3.771 13.179.889 19.318-2.882 6.138-7.869 10.99-12.751 15.698l30.744 13.715c2.896 1.291 6.026 2.807 7.35 5.688 2.289 4.982-2.155 10.447-6.72 13.483-14.241 9.472-33.609 10.634-48.881 2.932-9.797-4.941-20.658-7.298-31.385-9.608-5.857-1.261-11.957-2.522-17.775-1.095-4.129 1.013-8.022 3.361-12.271 3.217-3.797-.129-6.749 3.149-8.974 6.229-7.321 10.132-13.357 23.08-9.07 34.823 2.947 8.074 10.416 13.89 18.555 16.65 8.14 2.76 16.937 2.838 25.515 2.292 10.735-.683 21.672-2.387 31.1-7.568 6.138-3.374 11.632-8.209 18.422-9.93 8.147-2.065 16.73.706 25.112.094 6.675-.488 12.992-3.1 19.103-5.828 14.929-6.663 29.86-14.529 40.449-26.983 15.79-18.573 19.545-45.788 12-68.969-7.544-23.18-25.373-42.239-46.711-54.027-5.867-3.241-12.044-5.995-18.548-7.613-15.614-3.883-32.704-.825-46.349 7.7-7.025 4.39-13.129 10.109-20.013 14.717-6.883 4.608-14.975 8.158-23.22 7.353 6.354 7.022 13.28 14.394 22.483 16.625zM30.497 232.082c-9.565 3.729-19.135 8.676-25.196 16.961 2.789-1.537 6.29-1.708 9.216-.449l-6.397 3.161c-1.195.59-2.43 1.212-3.259 2.255-.83 1.042-1.13 2.634-.326 3.697.803 1.063 2.834.965 3.223-.309 1.425-4.676 6.93-7.665 11.629-6.314-3.529 2.01-7.382 4.432-8.359 8.374.528 1.776 3.128 2.068 4.657 1.021 1.528-1.047 2.291-2.862 3.17-4.493.879-1.63 2.155-3.3 3.989-3.568.386-.057.829-.027 1.097.257.469.495.082 1.304-.359 1.824-.998 1.179-2.272 2.21-2.763 3.674-.49 1.464.387 3.511 1.928 3.417a1055.124 1055.124 0 0064.764-5.964c.778-1.685-1.585-3.053-3.423-3.302a33.365 33.365 0 00-13.978 1.088c.833-2.773 3.634-4.589 6.483-5.109 2.848-.52 5.772.014 8.618.548a15.403 15.403 0 00-1.092-5.858 22.488 22.488 0 01-12.67-4.269c3.059-1.144 6.613-.884 9.472.695 1.365.754 2.382-1.453 2.405-3.012l.22-15.204a160.932 160.932 0 00-53.05 10.879zm497.875-46.608c5.496.792 9.803 4.965 13.699 8.922l14.969 15.208c1.495 1.519 3.979-.124 5.411-1.703 3.217-3.55 6.495-7.192 8.353-11.609 1.857-4.416 2.058-9.833-.711-13.743-1.645-2.323-4.151-3.89-6.72-5.118a40.082 40.082 0 00-13.518-3.737c-4.562-.427-9.157-.068-13.74-.102a80.162 80.162 0 01-15.215-1.574l4.496 11.325c.221.555.459 1.136.923 1.511.564.456 1.336.517 2.053.62z" clip-rule="evenodd"/>
</svg>
