<svg xmlns="http://www.w3.org/2000/svg" fill="none" viewBox="0 0 1716 298">
  <defs/>
  <path fill="#00C58E" d="M227.921 82.073l-13.689 23.704-46.815-81.086L23.704 273.58h97.303c0 13.091 10.613 23.703 23.704 23.703H23.704A23.702 23.702 0 013.18 261.728l143.713-248.89a23.704 23.704 0 0141.057 0l39.97 69.235z"/>
  <path fill="currentColor" d="M331.664 261.729L241.61 105.778l-13.689-23.704-13.689 23.704-90.044 155.951a23.7 23.7 0 00-.001 23.701 23.698 23.698 0 0020.524 11.854h166.4a23.702 23.702 0 0020.533-35.555h.02zM144.711 273.58l83.21-144.098 83.19 144.098h-166.4z"/>
  <path fill="#108775" d="M396.05 285.431a23.7 23.7 0 01-20.524 11.852h-64.415c13.091 0 23.704-10.612 23.704-23.704h40.662L260.099 73.747l-18.489 32.03-13.689-23.704 11.654-20.177a23.705 23.705 0 0141.057 0L396.05 261.727a23.704 23.704 0 010 23.703z"/>
  <path fill="currentColor" d="M477.564 206.376c-6.88 0-10.32-3.555-10.32-10.664V93.372c0-3.555.86-6.25 2.58-8.084 1.835-1.95 4.185-2.924 7.052-2.924 2.637 0 4.587.516 5.848 1.548 1.376.917 2.981 2.523 4.816 4.816l61.404 79.636V92.856c0-6.995 3.44-10.492 10.32-10.492 6.765 0 10.148 3.497 10.148 10.492v103.2c0 3.211-.803 5.733-2.408 7.568s-3.784 2.752-6.536 2.752c-2.637 0-4.759-.516-6.364-1.548-1.491-1.032-3.153-2.695-4.988-4.988l-61.404-79.808v75.68c0 7.109-3.383 10.664-10.148 10.664zm146.724.344c-20.64 0-30.96-11.581-30.96-34.744v-41.624c0-7.224 3.555-10.836 10.664-10.836 7.224 0 10.836 3.612 10.836 10.836v41.968c0 5.963 1.204 10.377 3.612 13.244 2.408 2.867 6.249 4.3 11.524 4.3 5.733 0 10.435-1.949 14.104-5.848 3.669-4.013 5.504-9.288 5.504-15.824v-37.84c0-7.224 3.555-10.836 10.664-10.836 7.224 0 10.836 3.612 10.836 10.836v65.016c0 7.339-3.497 11.008-10.492 11.008-6.995 0-10.492-3.669-10.492-11.008v-2.924c-5.619 9.517-14.219 14.276-25.8 14.276zm75.01-.86c-2.523 0-4.644-.688-6.364-2.064-1.606-1.491-2.466-3.383-2.58-5.676 0-2.293.974-4.701 2.924-7.224l23.736-29.24-22.016-27.176c-2.064-2.523-3.039-4.931-2.924-7.224.114-2.293.974-4.128 2.58-5.504 1.72-1.491 3.841-2.236 6.364-2.236 2.637 0 4.816.459 6.536 1.376 1.834.917 3.497 2.351 4.988 4.3l16.856 21.672 17.028-21.672c1.605-1.949 3.268-3.383 4.988-4.3 1.72-.917 3.841-1.376 6.364-1.376 2.637 0 4.758.745 6.364 2.236 1.605 1.491 2.408 3.383 2.408 5.676.114 2.293-.86 4.701-2.924 7.224l-22.016 27.004 23.908 29.24c2.064 2.408 3.038 4.759 2.924 7.052-.115 2.293-1.032 4.185-2.752 5.676-1.606 1.491-3.727 2.236-6.364 2.236-4.587 0-8.371-1.892-11.352-5.676l-18.748-23.564-18.576 23.564c-1.491 1.835-3.096 3.268-4.816 4.3-1.72.917-3.899 1.376-6.536 1.376zm126.574.86c-22.245 0-33.368-11.008-33.368-33.024V137.06h-8.944c-5.733 0-8.6-2.695-8.6-8.084 0-5.389 2.867-8.084 8.6-8.084h8.944V105.24c0-7.224 3.612-10.836 10.836-10.836 7.109 0 10.664 3.612 10.664 10.836v15.652h18.232c5.733 0 8.6 2.695 8.6 8.084 0 5.389-2.867 8.084-8.6 8.084h-18.232v35.432c0 5.504 1.204 9.632 3.612 12.384 2.408 2.752 6.307 4.128 11.696 4.128 1.949 0 3.669-.172 5.16-.516 1.491-.344 2.809-.573 3.956-.688 1.376-.115 2.523.344 3.44 1.376.917.917 1.376 2.867 1.376 5.848 0 2.293-.401 4.357-1.204 6.192-.688 1.72-2.007 2.924-3.956 3.612-1.491.459-3.44.86-5.848 1.204-2.408.459-4.529.688-6.364.688zm118.039 0c-7.683 0-15.193-.86-22.532-2.58-7.224-1.72-13.531-4.3-18.92-7.74-2.637-1.72-4.243-3.841-4.816-6.364-.573-2.523-.401-4.873.516-7.052 1.032-2.293 2.58-3.841 4.644-4.644 2.179-.917 4.644-.516 7.396 1.204a58.767 58.767 0 0015.996 6.536c5.619 1.376 11.524 2.064 17.716 2.064 9.059 0 15.652-1.491 19.78-4.472 4.128-3.096 6.192-7.052 6.192-11.868 0-4.013-1.491-7.167-4.472-9.46-2.867-2.293-7.855-4.185-14.964-5.676l-18.92-3.956c-21.557-4.587-32.336-15.652-32.336-33.196 0-7.568 2.007-14.161 6.02-19.78 4.013-5.619 9.575-9.976 16.684-13.072 7.109-3.096 15.308-4.644 24.596-4.644 6.88 0 13.416.86 19.608 2.58 6.192 1.72 11.753 4.243 16.684 7.568 2.293 1.605 3.669 3.612 4.128 6.02.459 2.293.172 4.472-.86 6.536-1.032 1.949-2.695 3.325-4.988 4.128-2.179.688-4.759.172-7.74-1.548-4.243-2.408-8.543-4.128-12.9-5.16-4.357-1.032-9.059-1.548-14.104-1.548-7.912 0-14.104 1.663-18.576 4.988-4.472 3.325-6.708 7.683-6.708 13.072 0 4.128 1.376 7.453 4.128 9.976 2.752 2.408 7.453 4.3 14.104 5.676l18.748 3.956c11.352 2.408 19.78 6.192 25.284 11.352 5.619 5.16 8.428 12.04 8.428 20.64 0 7.224-1.949 13.588-5.848 19.092s-9.46 9.804-16.684 12.9c-7.109 2.981-15.537 4.472-25.284 4.472zm102.339 0c-22.25 0-33.37-11.008-33.37-33.024V137.06h-8.94c-5.738 0-8.605-2.695-8.605-8.084 0-5.389 2.867-8.084 8.605-8.084h8.94V105.24c0-7.224 3.61-10.836 10.84-10.836 7.1 0 10.66 3.612 10.66 10.836v15.652h18.23c5.73 0 8.6 2.695 8.6 8.084 0 5.389-2.87 8.084-8.6 8.084h-18.23v35.432c0 5.504 1.2 9.632 3.61 12.384 2.41 2.752 6.31 4.128 11.7 4.128 1.95 0 3.67-.172 5.16-.516 1.49-.344 2.81-.573 3.95-.688 1.38-.115 2.53.344 3.44 1.376.92.917 1.38 2.867 1.38 5.848 0 2.293-.4 4.357-1.2 6.192-.69 1.72-2.01 2.924-3.96 3.612-1.49.459-3.44.86-5.85 1.204-2.41.459-4.53.688-6.36.688zm65 0c-8.72 0-16.29-1.777-22.71-5.332-6.42-3.555-11.41-8.6-14.96-15.136-3.56-6.651-5.33-14.448-5.33-23.392 0-8.944 1.77-16.684 5.33-23.22 3.55-6.536 8.54-11.581 14.96-15.136 6.42-3.555 13.99-5.332 22.71-5.332 8.71 0 16.28 1.777 22.7 5.332 6.42 3.555 11.41 8.6 14.96 15.136 3.56 6.536 5.34 14.276 5.34 23.22 0 8.944-1.78 16.741-5.34 23.392-3.55 6.536-8.54 11.581-14.96 15.136-6.42 3.555-13.99 5.332-22.7 5.332zm0-16.34c6.42 0 11.58-2.293 15.48-6.88 3.9-4.701 5.84-11.581 5.84-20.64 0-9.173-1.94-15.996-5.84-20.468-3.9-4.587-9.06-6.88-15.48-6.88s-11.58 2.293-15.48 6.88c-3.9 4.472-5.85 11.295-5.85 20.468 0 9.059 1.95 15.939 5.85 20.64 3.9 4.587 9.06 6.88 15.48 6.88zm71.75 15.996c-7.34 0-11.01-3.669-11.01-11.008v-65.016c0-7.224 3.5-10.836 10.49-10.836 7 0 10.5 3.612 10.5 10.836v5.332c4.12-9.861 12.95-15.365 26.48-16.512 4.94-.573 7.69 2.236 8.26 8.428.57 6.077-2.41 9.46-8.94 10.148l-3.79.344c-14.1 1.376-21.15 8.6-21.15 21.672v35.604c0 7.339-3.62 11.008-10.84 11.008zm96.46.344c-9.52 0-17.72-1.777-24.6-5.332-6.88-3.555-12.21-8.6-16-15.136-3.67-6.536-5.5-14.276-5.5-23.22 0-8.715 1.78-16.34 5.33-22.876 3.67-6.536 8.66-11.639 14.97-15.308 6.42-3.784 13.7-5.676 21.84-5.676 11.93 0 21.33 3.784 28.21 11.352 6.99 7.568 10.49 17.888 10.49 30.96 0 4.243-2.75 6.364-8.26 6.364H1254c1.61 15.021 10.21 22.532 25.8 22.532 2.98 0 6.31-.344 9.98-1.032a38.548 38.548 0 0010.66-3.956c2.98-1.72 5.5-2.236 7.57-1.548 2.06.573 3.5 1.777 4.3 3.612.92 1.835 1.03 3.899.34 6.192-.57 2.179-2.18 4.071-4.81 5.676-4.02 2.523-8.66 4.415-13.94 5.676-5.16 1.147-9.97 1.72-14.44 1.72zm-3.1-72.928c-6.31 0-11.41 1.949-15.31 5.848-3.9 3.899-6.25 9.173-7.05 15.824h42.31c-.46-6.995-2.41-12.327-5.85-15.996-3.32-3.784-8.02-5.676-14.1-5.676zm71.04 72.584c-7.22 0-10.83-3.669-10.83-11.008V137.06h-7.92c-5.73 0-8.6-2.695-8.6-8.084 0-5.389 2.87-8.084 8.6-8.084h7.92v-.172c0-11.811 2.98-20.64 8.94-26.488 5.96-5.963 14.56-9.46 25.8-10.492l5.85-.516c2.98-.23 5.16.401 6.53 1.892 1.38 1.49 2.07 3.325 2.07 5.504.11 2.064-.4 3.956-1.55 5.676-1.15 1.605-2.81 2.523-4.99 2.752l-2.41.172c-6.53.459-11.29 2.121-14.27 4.988-2.98 2.867-4.47 7.224-4.47 13.072v3.612h14.62c5.73 0 8.6 2.695 8.6 8.084 0 5.389-2.87 8.084-8.6 8.084h-14.62v58.308c0 7.339-3.56 11.008-10.67 11.008zm57.15 0c-7.34 0-11.01-3.669-11.01-11.008v-65.016c0-7.224 3.5-10.836 10.5-10.836 6.99 0 10.49 3.612 10.49 10.836v5.332c4.13-9.861 12.95-15.365 26.49-16.512 4.93-.573 7.68 2.236 8.25 8.428.57 6.077-2.41 9.46-8.94 10.148l-3.79.344c-14.1 1.376-21.15 8.6-21.15 21.672v35.604c0 7.339-3.61 11.008-10.84 11.008zm93.36.344c-8.71 0-16.28-1.777-22.7-5.332-6.42-3.555-11.41-8.6-14.97-15.136-3.55-6.651-5.33-14.448-5.33-23.392 0-8.944 1.78-16.684 5.33-23.22 3.56-6.536 8.55-11.581 14.97-15.136 6.42-3.555 13.99-5.332 22.7-5.332 8.72 0 16.28 1.777 22.71 5.332 6.42 3.555 11.4 8.6 14.96 15.136 3.55 6.536 5.33 14.276 5.33 23.22 0 8.944-1.78 16.741-5.33 23.392-3.56 6.536-8.54 11.581-14.96 15.136-6.43 3.555-13.99 5.332-22.71 5.332zm0-16.34c6.42 0 11.58-2.293 15.48-6.88 3.9-4.701 5.85-11.581 5.85-20.64 0-9.173-1.95-15.996-5.85-20.468-3.9-4.587-9.06-6.88-15.48-6.88s-11.58 2.293-15.48 6.88c-3.9 4.472-5.85 11.295-5.85 20.468 0 9.059 1.95 15.939 5.85 20.64 3.9 4.587 9.06 6.88 15.48 6.88zm71.41 15.996c-7.11 0-10.66-3.669-10.66-11.008v-65.016c0-7.224 3.49-10.836 10.49-10.836 6.99 0 10.49 3.612 10.49 10.836v3.612c2.87-4.816 6.71-8.485 11.52-11.008 4.94-2.523 10.44-3.784 16.52-3.784 19.83 0 29.75 11.524 29.75 34.572v41.624c0 7.339-3.55 11.008-10.66 11.008-7.23 0-10.84-3.669-10.84-11.008v-40.592c0-6.536-1.26-11.295-3.78-14.276-2.41-2.981-6.19-4.472-11.35-4.472-6.31 0-11.36 2.007-15.14 6.02-3.67 3.899-5.5 9.116-5.5 15.652v37.668c0 7.339-3.62 11.008-10.84 11.008zm128.48.344c-22.25 0-33.37-11.008-33.37-33.024V137.06h-8.94c-5.74 0-8.6-2.695-8.6-8.084 0-5.389 2.86-8.084 8.6-8.084h8.94V105.24c0-7.224 3.61-10.836 10.84-10.836 7.11 0 10.66 3.612 10.66 10.836v15.652h18.23c5.74 0 8.6 2.695 8.6 8.084 0 5.389-2.86 8.084-8.6 8.084h-18.23v35.432c0 5.504 1.2 9.632 3.61 12.384 2.41 2.752 6.31 4.128 11.7 4.128 1.95 0 3.67-.172 5.16-.516 1.49-.344 2.81-.573 3.95-.688 1.38-.115 2.53.344 3.44 1.376.92.917 1.38 2.867 1.38 5.848 0 2.293-.4 4.357-1.2 6.192-.69 1.72-2.01 2.924-3.96 3.612-1.49.459-3.44.86-5.85 1.204-2.41.459-4.53.688-6.36.688z"/>
</svg>
