<svg xmlns="http://www.w3.org/2000/svg" fill="none" viewBox="0 0 841 288">
  <path fill="currentColor" d="M448.74 224.42c-11.88 0-22.22-1.833-31.02-5.5-8.8-3.813-15.62-9.02-20.46-15.62-4.693-6.747-7.04-14.593-7.04-23.54 0-9.973 2.713-18.48 8.14-25.52 5.573-7.04 12.613-12.833 21.12-17.38-4.693-4.693-8.213-9.753-10.56-15.18-2.347-5.573-3.52-11.22-3.52-16.94 0-7.92 1.98-14.887 5.94-20.9 4.107-6.16 9.753-10.927 16.94-14.3 7.333-3.373 15.913-5.06 25.74-5.06 13.053 0 23.393 3.373 31.02 10.12 7.773 6.6 11.66 15.547 11.66 26.84 0 16.573-8.653 29.773-25.96 39.6l22.44 21.78a68.592 68.592 0 004.4-11.22c1.173-3.96 2.2-8.067 3.08-12.32 1.027-4.987 2.86-8.727 5.5-11.22 2.787-2.493 6.673-3.74 11.66-3.74 5.28 0 9.24 1.467 11.88 4.4 2.787 2.933 3.74 7.113 2.86 12.54-1.32 8.36-3.373 16.207-6.16 23.54-2.64 7.187-6.013 13.787-10.12 19.8l14.96 14.08c4.107 3.813 6.16 7.7 6.16 11.66.147 3.813-1.32 7.04-4.4 9.68-3.08 2.64-7.187 3.96-12.32 3.96-4.693 0-8.507-.88-11.44-2.64-2.787-1.907-5.94-4.473-9.46-7.7l-5.06-5.06c-6.6 4.987-13.86 8.873-21.78 11.66-7.773 2.787-15.84 4.18-24.2 4.18zM454.02 90c-4.107 0-7.333 1.247-9.68 3.74-2.347 2.493-3.52 5.793-3.52 9.9 0 3.08.733 6.013 2.2 8.8 1.613 2.787 4.18 6.013 7.7 9.68 5.72-2.933 9.753-5.867 12.1-8.8 2.493-3.08 3.74-6.673 3.74-10.78 0-4.253-1.173-7.407-3.52-9.46-2.2-2.053-5.207-3.08-9.02-3.08zm-2.64 104.94c4.107 0 7.847-.587 11.22-1.76 3.52-1.173 6.893-2.933 10.12-5.28l-32.78-31.46c-7.333 5.133-11 11.953-11 20.46 0 5.573 1.98 9.973 5.94 13.2 3.96 3.227 9.46 4.84 16.5 4.84z"/>
  <g clip-path="url(#clip123123)">
    <path fill="#FFBF00" d="M150.411 8.555L24.828 60.515c-6.984 2.89-6.911 12.808.116 15.594l126.109 50.004a46.792 46.792 0 0034.499 0l126.111-50.004c7.025-2.785 7.099-12.704.114-15.594L186.196 8.555a46.8 46.8 0 00-35.785 0z"/>
    <path fill="#26B5F8" d="M179.491 153.419v124.918c0 5.942 5.992 10.01 11.515 7.821l140.523-54.539a8.411 8.411 0 005.312-7.821V98.88c0-5.942-5.992-10.01-11.515-7.82l-140.523 54.539a8.413 8.413 0 00-5.312 7.82z"/>
    <path fill="#ED3049" d="M146.678 159.865l-41.705 20.134-4.234 2.047-88.035 42.178C7.124 226.916 0 222.849 0 216.651V99.405c0-2.243 1.15-4.179 2.692-5.637a9.564 9.564 0 012.13-1.597c2.104-1.263 5.105-1.6 7.656-.59l133.498 52.888c6.786 2.692 7.319 12.199.701 15.396z"/>
    <path fill="#3B3B3B" d="M146.678 159.865l-41.705 20.134L2.693 93.768a9.563 9.563 0 012.13-1.597c2.104-1.263 5.105-1.6 7.656-.59l133.498 52.888c6.786 2.692 7.319 12.199.701 15.396z"/>
  </g>
  <path fill="url(#paint2131_linear)" d="M816.055 124.588c12.501-.601 23.566 9.097 24.646 21.609 4.675 60.529-50.719 128.335-128.782 130.503-65.784 1.623-130.846-51.043-130.846-130.676 0-12.55 10.37-22.724 22.885-22.724 12.516 0 22.661 10.174 22.661 22.724 0 52.381 42.118 86.281 84.186 85.243 51.786-1.439 85.453-46.28 83.702-82.893-.601-12.535 9.048-23.184 21.548-23.786z"/>
  <path fill="#00A672" d="M759.445 147.785c0-12.848 10.481-23.264 23.408-23.264h34.115c12.928 0 23.733 10.416 23.733 23.264 0 12.849-10.805 23.265-23.733 23.265h-34.115c-12.927 0-23.408-10.416-23.408-23.265zM687.865 147.819c0-12.867 10.414-23.298 23.245-23.298 12.833 0 23.246 10.431 23.246 23.298 0 12.867-10.413 23.299-23.246 23.299-12.831 0-23.245-10.432-23.245-23.299z"/>
  <path fill="#00A672" fill-rule="evenodd" d="M733.713 38.964c.52 12.54-9.197 23.126-21.701 23.647-53.98 2.248-86.934 44.674-85.33 84.958.499 12.54-9.031 23.112-21.536 23.613-12.505.501-23.502-9.62-24.002-22.16-2.614-65.647 52.048-130.545 128.987-131.82 12.504-.52 23.063 9.223 23.582 21.762z" clip-rule="evenodd"/>
  <defs>
    <linearGradient id="paint2131_linear" x1="711.024" x2="711.024" y1="123.3" y2="276.737" gradientUnits="userSpaceOnUse">
      <stop stop-color="#00583E"/>
      <stop offset="1" stop-color="#00835C"/>
    </linearGradient>
    <clipPath id="clip123123">
      <path fill="#fff" d="M0 0h337v283H0z" transform="translate(0 5)"/>
    </clipPath>
  </defs>
</svg>
