<svg xmlns="http://www.w3.org/2000/svg" fill="none" viewBox="0 0 1281 298">
  <defs/>
  <path fill="#00C58E" d="M227.921 82.073l-13.689 23.704-46.815-81.086L23.704 273.58h97.303c0 13.091 10.613 23.703 23.704 23.703H23.704A23.702 23.702 0 013.18 261.728l143.713-248.89a23.704 23.704 0 0141.057 0l39.97 69.235z"/>
  <path fill="currentColor" d="M331.664 261.729L241.61 105.778l-13.689-23.704-13.689 23.704-90.044 155.951a23.7 23.7 0 00-.001 23.701 23.698 23.698 0 0020.524 11.854h166.4a23.702 23.702 0 0020.533-35.555h.02zM144.711 273.58l83.21-144.098 83.19 144.098h-166.4z"/>
  <path fill="#108775" d="M396.05 285.431a23.7 23.7 0 01-20.524 11.852h-64.415c13.091 0 23.704-10.612 23.704-23.704h40.662L260.099 73.747l-18.489 32.03-13.689-23.704 11.654-20.177a23.705 23.705 0 0141.057 0L396.05 261.727a23.704 23.704 0 010 23.703z"/>
  <path fill="currentColor" d="M509.04 206.72c-7.683 0-15.193-.86-22.532-2.58-7.224-1.72-13.531-4.3-18.92-7.74-2.637-1.72-4.243-3.841-4.816-6.364-.573-2.523-.401-4.873.516-7.052 1.032-2.293 2.58-3.841 4.644-4.644 2.179-.917 4.644-.516 7.396 1.204a58.767 58.767 0 0015.996 6.536c5.619 1.376 11.524 2.064 17.716 2.064 9.059 0 15.652-1.491 19.78-4.472 4.128-3.096 6.192-7.052 6.192-11.868 0-4.013-1.491-7.167-4.472-9.46-2.867-2.293-7.855-4.185-14.964-5.676l-18.92-3.956c-21.557-4.587-32.336-15.652-32.336-33.196 0-7.568 2.007-14.161 6.02-19.78 4.013-5.619 9.575-9.976 16.684-13.072 7.109-3.096 15.308-4.644 24.596-4.644 6.88 0 13.416.86 19.608 2.58 6.192 1.72 11.753 4.243 16.684 7.568 2.293 1.605 3.669 3.612 4.128 6.02.459 2.293.172 4.472-.86 6.536-1.032 1.949-2.695 3.325-4.988 4.128-2.179.688-4.759.172-7.74-1.548-4.243-2.408-8.543-4.128-12.9-5.16-4.357-1.032-9.059-1.548-14.104-1.548-7.912 0-14.104 1.663-18.576 4.988-4.472 3.325-6.708 7.683-6.708 13.072 0 4.128 1.376 7.453 4.128 9.976 2.752 2.408 7.453 4.3 14.104 5.676l18.748 3.956c11.352 2.408 19.78 6.192 25.284 11.352 5.619 5.16 8.428 12.04 8.428 20.64 0 7.224-1.949 13.588-5.848 19.092s-9.46 9.804-16.684 12.9c-7.109 2.981-15.537 4.472-25.284 4.472zm102.336 0c-22.245 0-33.368-11.008-33.368-33.024V137.06h-8.944c-5.733 0-8.6-2.695-8.6-8.084 0-5.389 2.867-8.084 8.6-8.084h8.944V105.24c0-7.224 3.612-10.836 10.836-10.836 7.109 0 10.664 3.612 10.664 10.836v15.652h18.232c5.733 0 8.6 2.695 8.6 8.084 0 5.389-2.867 8.084-8.6 8.084h-18.232v35.432c0 5.504 1.204 9.632 3.612 12.384 2.408 2.752 6.307 4.128 11.696 4.128 1.949 0 3.669-.172 5.16-.516 1.491-.344 2.809-.573 3.956-.688 1.376-.115 2.523.344 3.44 1.376.917.917 1.376 2.867 1.376 5.848 0 2.293-.401 4.357-1.204 6.192-.688 1.72-2.007 2.924-3.956 3.612-1.491.459-3.44.86-5.848 1.204-2.408.459-4.529.688-6.364.688zm65 0c-8.715 0-16.283-1.777-22.704-5.332-6.421-3.555-11.409-8.6-14.964-15.136-3.555-6.651-5.332-14.448-5.332-23.392 0-8.944 1.777-16.684 5.332-23.22 3.555-6.536 8.543-11.581 14.964-15.136 6.421-3.555 13.989-5.332 22.704-5.332s16.283 1.777 22.704 5.332c6.421 3.555 11.409 8.6 14.964 15.136 3.555 6.536 5.332 14.276 5.332 23.22 0 8.944-1.777 16.741-5.332 23.392-3.555 6.536-8.543 11.581-14.964 15.136-6.421 3.555-13.989 5.332-22.704 5.332zm0-16.34c6.421 0 11.581-2.293 15.48-6.88 3.899-4.701 5.848-11.581 5.848-20.64 0-9.173-1.949-15.996-5.848-20.468-3.899-4.587-9.059-6.88-15.48-6.88-6.421 0-11.581 2.293-15.48 6.88-3.899 4.472-5.848 11.295-5.848 20.468 0 9.059 1.949 15.939 5.848 20.64 3.899 4.587 9.059 6.88 15.48 6.88zm71.753 15.996c-7.338 0-11.008-3.669-11.008-11.008v-65.016c0-7.224 3.498-10.836 10.492-10.836 6.995 0 10.492 3.612 10.492 10.836v5.332c4.128-9.861 12.958-15.365 26.488-16.512 4.931-.573 7.683 2.236 8.256 8.428.574 6.077-2.408 9.46-8.944 10.148l-3.784.344c-14.104 1.376-21.156 8.6-21.156 21.672v35.604c0 7.339-3.612 11.008-10.836 11.008zm96.456.344c-9.517 0-17.716-1.777-24.596-5.332-6.88-3.555-12.212-8.6-15.996-15.136-3.669-6.536-5.504-14.276-5.504-23.22 0-8.715 1.777-16.34 5.332-22.876 3.669-6.536 8.657-11.639 14.964-15.308 6.421-3.784 13.703-5.676 21.844-5.676 11.925 0 21.328 3.784 28.208 11.352 6.995 7.568 10.492 17.888 10.492 30.96 0 4.243-2.752 6.364-8.256 6.364h-51.944c1.605 15.021 10.205 22.532 25.8 22.532 2.981 0 6.307-.344 9.976-1.032a38.467 38.467 0 0010.664-3.956c2.981-1.72 5.504-2.236 7.568-1.548 2.064.573 3.497 1.777 4.3 3.612.917 1.835 1.032 3.899.344 6.192-.573 2.179-2.179 4.071-4.816 5.676-4.013 2.523-8.657 4.415-13.932 5.676-5.16 1.147-9.976 1.72-14.448 1.72zm-3.096-72.928c-6.307 0-11.409 1.949-15.308 5.848-3.899 3.899-6.249 9.173-7.052 15.824h42.312c-.459-6.995-2.408-12.327-5.848-15.996-3.325-3.784-8.027-5.676-14.104-5.676zm71.043 72.584c-7.224 0-10.836-3.669-10.836-11.008V137.06h-7.912c-5.733 0-8.6-2.695-8.6-8.084 0-5.389 2.867-8.084 8.6-8.084h7.912v-.172c0-11.811 2.981-20.64 8.944-26.488 5.963-5.963 14.563-9.46 25.8-10.492l5.848-.516c2.981-.23 5.16.401 6.536 1.892 1.376 1.49 2.064 3.325 2.064 5.504a9.066 9.066 0 01-1.548 5.676c-1.147 1.605-2.809 2.523-4.988 2.752l-2.408.172c-6.536.459-11.295 2.121-14.276 4.988-2.981 2.867-4.472 7.224-4.472 13.072v3.612h14.62c5.733 0 8.6 2.695 8.6 8.084 0 5.389-2.867 8.084-8.6 8.084h-14.62v58.308c0 7.339-3.555 11.008-10.664 11.008zm57.148 0c-7.338 0-11.008-3.669-11.008-11.008v-65.016c0-7.224 3.498-10.836 10.492-10.836 6.995 0 10.492 3.612 10.492 10.836v5.332c4.128-9.861 12.958-15.365 26.484-16.512 4.93-.573 7.69 2.236 8.26 8.428.57 6.077-2.41 9.46-8.94 10.148l-3.79.344c-14.102 1.376-21.154 8.6-21.154 21.672v35.604c0 7.339-3.612 11.008-10.836 11.008zm93.36.344c-8.71 0-16.28-1.777-22.7-5.332-6.43-3.555-11.41-8.6-14.97-15.136-3.55-6.651-5.33-14.448-5.33-23.392 0-8.944 1.78-16.684 5.33-23.22 3.56-6.536 8.54-11.581 14.97-15.136 6.42-3.555 13.99-5.332 22.7-5.332 8.71 0 16.28 1.777 22.7 5.332 6.43 3.555 11.41 8.6 14.97 15.136 3.55 6.536 5.33 14.276 5.33 23.22 0 8.944-1.78 16.741-5.33 23.392-3.56 6.536-8.54 11.581-14.97 15.136-6.42 3.555-13.99 5.332-22.7 5.332zm0-16.34c6.42 0 11.58-2.293 15.48-6.88 3.9-4.701 5.85-11.581 5.85-20.64 0-9.173-1.95-15.996-5.85-20.468-3.9-4.587-9.06-6.88-15.48-6.88s-11.58 2.293-15.48 6.88c-3.9 4.472-5.85 11.295-5.85 20.468 0 9.059 1.95 15.939 5.85 20.64 3.9 4.587 9.06 6.88 15.48 6.88zm71.41 15.996c-7.11 0-10.66-3.669-10.66-11.008v-65.016c0-7.224 3.49-10.836 10.49-10.836 6.99 0 10.49 3.612 10.49 10.836v3.612c2.87-4.816 6.71-8.485 11.52-11.008 4.93-2.523 10.44-3.784 16.52-3.784 19.83 0 29.75 11.524 29.75 34.572v41.624c0 7.339-3.55 11.008-10.66 11.008-7.23 0-10.84-3.669-10.84-11.008v-40.592c0-6.536-1.26-11.295-3.78-14.276-2.41-2.981-6.19-4.472-11.35-4.472-6.31 0-11.36 2.007-15.14 6.02-3.67 3.899-5.5 9.116-5.5 15.652v37.668c0 7.339-3.62 11.008-10.84 11.008zm128.48.344c-22.25 0-33.37-11.008-33.37-33.024V137.06h-8.95c-5.73 0-8.6-2.695-8.6-8.084 0-5.389 2.87-8.084 8.6-8.084h8.95V105.24c0-7.224 3.61-10.836 10.83-10.836 7.11 0 10.67 3.612 10.67 10.836v15.652h18.23c5.73 0 8.6 2.695 8.6 8.084 0 5.389-2.87 8.084-8.6 8.084h-18.23v35.432c0 5.504 1.2 9.632 3.61 12.384 2.41 2.752 6.31 4.128 11.7 4.128 1.95 0 3.67-.172 5.16-.516 1.49-.344 2.81-.573 3.95-.688 1.38-.115 2.53.344 3.44 1.376.92.917 1.38 2.867 1.38 5.848 0 2.293-.4 4.357-1.21 6.192-.68 1.72-2 2.924-3.95 3.612-1.49.459-3.44.86-5.85 1.204-2.41.459-4.53.688-6.36.688z"/>
</svg>
