<svg xmlns="http://www.w3.org/2000/svg" width="24" height="24" fill="none" viewBox="0 0 24 24">
  <path fill="currentColor" d="M7.965 6.202a.822.822 0 00-.537.105h-.014c-.375.22-.713.498-1.001.824-.24.277-.37.557-.404.827-.02.16-.006.322.041.475l.018.01c.27.793.622 1.556 1.052 2.274a13.374 13.374 0 002.03 2.775l.024.034.038.028.023.027.028.024a13.564 13.564 0 002.782 2.04c1.155.629 1.856.926 2.277 1.05v.006c.123.038.235.055.348.055.359-.027.698-.172.964-.414.325-.288.6-.627.814-1.004v-.007c.201-.38.133-.738-.157-.981A12.126 12.126 0 0014.41 13c-.448-.243-.903-.096-1.087.15l-.393.496c-.202.246-.568.212-.568.212l-.01.006c-2.731-.697-3.46-3.462-3.46-3.462s-.034-.376.219-.568l.492-.396c.236-.192.4-.646.147-1.094a11.807 11.807 0 00-1.347-1.88.748.748 0 00-.44-.264v.002zM12.58 5a.5.5 0 000 1c1.264 0 2.314.413 3.145 1.205.427.433.76.946.978 1.508.219.563.319 1.164.293 1.766a.5.5 0 101 .042 5.359 5.359 0 00-.361-2.171 5.442 5.442 0 00-1.204-1.854l-.01-.01C15.39 5.503 14.085 5 12.579 5z"/>
  <path fill="currentColor" d="M12.545 6.644a.5.5 0 000 1h.017c.912.065 1.576.369 2.041.868.477.514.724 1.153.705 1.943a.5.5 0 001 .023c.024-1.037-.31-1.932-.972-2.646V7.83c-.677-.726-1.606-1.11-2.724-1.186h-.067z"/>
  <path fill="currentColor" d="M12.526 8.319a.5.5 0 10-.052.998c.418.022.685.148.853.317.169.17.295.443.318.87a.5.5 0 10.998-.053c-.032-.6-.22-1.131-.605-1.52-.387-.39-.914-.58-1.512-.612z"/>
  <path fill="currentColor" fill-rule="evenodd" d="M7.067 2.383a22.15 22.15 0 019.664 0l.339.076a5.155 5.155 0 013.872 3.763 19.718 19.718 0 010 9.7 5.155 5.155 0 01-3.872 3.762l-.34.076a22.15 22.15 0 01-6.077.499L8 22.633a.75.75 0 01-1.24-.435l-.439-2.622a5.155 5.155 0 01-3.465-3.654 19.717 19.717 0 010-9.7 5.155 5.155 0 013.872-3.763l.339-.076zm9.337 1.464a20.65 20.65 0 00-9.01 0l-.34.076A3.655 3.655 0 004.31 6.591a18.217 18.217 0 000 8.962 3.655 3.655 0 002.745 2.668l.09.02a.75.75 0 01.576.608l.294 1.758 1.872-1.676a.75.75 0 01.553-.189 20.653 20.653 0 005.964-.446l.339-.075a3.655 3.655 0 002.745-2.668c.746-2.94.746-6.021 0-8.962a3.655 3.655 0 00-2.745-2.668l-.34-.076z" clip-rule="evenodd"/>
</svg>
