<svg xmlns="http://www.w3.org/2000/svg" fill="none" viewBox="0 0 24 24">
  <path fill="currentColor" d="M19.148 5.25H5.335l-1.18-2.115A.75.75 0 003.5 2.75H2a.75.75 0 000 1.5h1.06l1.164 2.088L6.91 12.28l.003.006.237.523-2.697 2.877a.75.75 0 00.462 1.258l2.458.281c3.075.352 6.18.352 9.254 0l2.458-.28a.75.75 0 00-.17-1.491l-2.458.28a39.256 39.256 0 01-8.914 0l-.975-.11 1.98-2.112a.768.768 0 00.053-.064l.752.098c1.055.138 2.122.165 3.182.08a9.29 9.29 0 006.366-3.268l.579-.685a.734.734 0 00.053-.072l1.078-1.642c.764-1.164-.071-2.71-1.463-2.71zM6.5 18.5a1.5 1.5 0 100 3 1.5 1.5 0 000-3zM16 20a1.5 1.5 0 113 0 1.5 1.5 0 01-3 0z"/>
</svg>
