<svg xmlns="http://www.w3.org/2000/svg" fill="none" viewBox="0 0 24 24">
  <path fill="currentColor" d="M9.068 3.228a18.766 18.766 0 00-4.136 0 1.916 1.916 0 00-1.69 1.673 18.067 18.067 0 000 4.198 1.916 1.916 0 001.69 1.673c1.363.152 2.773.152 4.136 0a1.916 1.916 0 001.69-1.673 18.066 18.066 0 000-4.198 1.916 1.916 0 00-1.69-1.673zM9.068 13.228a18.765 18.765 0 00-4.136 0 1.916 1.916 0 00-1.69 1.673 18.067 18.067 0 000 4.198 1.916 1.916 0 001.69 1.673c1.363.152 2.773.152 4.136 0a1.916 1.916 0 001.69-1.673 18.066 18.066 0 000-4.198 1.916 1.916 0 00-1.69-1.673zM19.068 3.228a18.766 18.766 0 00-4.136 0 1.916 1.916 0 00-1.69 1.673 18.066 18.066 0 000 4.198 1.916 1.916 0 001.69 1.673c1.364.152 2.772.152 4.136 0a1.916 1.916 0 001.69-1.673 18.066 18.066 0 000-4.198 1.916 1.916 0 00-1.69-1.673zM19.068 13.228a18.765 18.765 0 00-4.136 0 1.916 1.916 0 00-1.69 1.673 18.066 18.066 0 000 4.198 1.916 1.916 0 001.69 1.673c1.364.152 2.772.152 4.136 0a1.916 1.916 0 001.69-1.673 18.066 18.066 0 000-4.198 1.916 1.916 0 00-1.69-1.673z"/>
</svg>
