<svg xmlns="http://www.w3.org/2000/svg" fill="none" viewBox="0 0 24 24">
  <path fill="currentColor" fill-rule="evenodd" d="M8.93 4.47a17.516 17.516 0 00-3.86 0 .666.666 0 00-.586.576 16.816 16.816 0 000 3.908.666.666 0 00.587.576c1.271.142 2.587.142 3.858 0a.666.666 0 00.587-.576c.152-1.298.152-2.61 0-3.908a.666.666 0 00-.587-.576zM4.903 2.98a19.017 19.017 0 014.192 0c.99.11 1.793.89 1.91 1.892a18.31 18.31 0 010 4.256 2.165 2.165 0 01-1.91 1.892 19.01 19.01 0 01-4.192 0 2.166 2.166 0 01-1.91-1.892 18.316 18.316 0 010-4.256 2.166 2.166 0 011.91-1.892zM8.93 14.47a17.514 17.514 0 00-3.86 0 .666.666 0 00-.586.576 16.815 16.815 0 000 3.907.666.666 0 00.587.577c1.271.142 2.587.142 3.858 0a.666.666 0 00.587-.577c.152-1.297.152-2.609 0-3.906a.666.666 0 00-.587-.577zm-4.026-1.49a19.01 19.01 0 014.192 0c.99.11 1.793.89 1.91 1.892a18.31 18.31 0 010 4.256 2.165 2.165 0 01-1.91 1.892 19.01 19.01 0 01-4.192 0 2.166 2.166 0 01-1.91-1.892 18.316 18.316 0 010-4.256 2.166 2.166 0 011.91-1.892zM18.93 4.47a17.517 17.517 0 00-3.86 0 .666.666 0 00-.586.576 16.817 16.817 0 000 3.908.666.666 0 00.587.576c1.271.142 2.587.142 3.858 0a.666.666 0 00.587-.576c.152-1.298.152-2.61 0-3.908a.666.666 0 00-.587-.576zm-4.026-1.49a19.017 19.017 0 014.192 0c.99.11 1.793.89 1.91 1.892a18.31 18.31 0 010 4.256 2.165 2.165 0 01-1.91 1.892c-1.382.155-2.81.155-4.192 0a2.166 2.166 0 01-1.91-1.892 18.322 18.322 0 010-4.256 2.166 2.166 0 011.91-1.892zM18.93 14.47a17.514 17.514 0 00-3.86 0 .666.666 0 00-.586.576 16.817 16.817 0 000 3.907.666.666 0 00.587.577c1.271.142 2.587.142 3.858 0a.666.666 0 00.587-.577c.152-1.297.152-2.609 0-3.906a.666.666 0 00-.587-.577zm-4.026-1.49a19.011 19.011 0 014.192 0c.99.11 1.793.89 1.91 1.892a18.31 18.31 0 010 4.256 2.165 2.165 0 01-1.91 1.892c-1.382.155-2.81.155-4.192 0a2.166 2.166 0 01-1.91-1.892 18.322 18.322 0 010-4.256 2.166 2.166 0 011.91-1.892z" clip-rule="evenodd"/>
</svg>
