<svg xmlns="http://www.w3.org/2000/svg" fill="currentColor" viewBox="0 0 24 24">
  <path  fill-rule="evenodd" d="M5.84 9.856a17.217 17.217 0 008.922 8.663l.012.005.764.34a2.25 2.25 0 002.74-.737l1.274-1.764a.25.25 0 00-.046-.34l-2.224-1.795a.25.25 0 00-.358.045l-.866 1.169a.75.75 0 01-.912.237 13.388 13.388 0 01-6.67-6.67.75.75 0 01.237-.912L9.88 7.23a.25.25 0 00.046-.358L8.132 4.648a.25.25 0 00-.341-.046l-1.773 1.28a2.25 2.25 0 00-.732 2.756l.554 1.217v.001zm8.33 10.041a18.716 18.716 0 01-9.694-9.416v-.003l-.555-1.22A3.75 3.75 0 015.14 4.667l1.773-1.28a1.75 1.75 0 012.386.32l1.795 2.225a1.75 1.75 0 01-.32 2.505l-.67.496a11.892 11.892 0 005.118 5.118l.497-.67a1.75 1.75 0 012.504-.32l2.225 1.795a1.75 1.75 0 01.32 2.387l-1.275 1.764a3.75 3.75 0 01-4.565 1.229l-.758-.338z" clip-rule="evenodd"/>
</svg>
