<svg xmlns="http://www.w3.org/2000/svg" fill="currentColor" viewBox="0 0 24 24">
  <path fill-rule="evenodd" d="M12 2.25c-5.385 0-9.75 4.365-9.75 9.75s4.365 9.75 9.75 9.75 9.75-4.365 9.75-9.75S17.385 2.25 12 2.25zM3.75 12a8.25 8.25 0 115.789 7.877 9.236 9.236 0 001-2.128l.516-1.977a2.232 2.232 0 001.906.95c2.535 0 4.317-2.304 4.317-5.166 0-2.749-2.245-4.803-5.124-4.803-3.587 0-5.492 2.41-5.492 5.029 0 1.223.647 2.737 1.686 3.224.154.071.255 0 .279-.113.024-.113.166-.682.231-.944a.263.263 0 00-.059-.237 3.218 3.218 0 01-.594-1.894 3.598 3.598 0 013.753-3.61 3.283 3.283 0 013.473 3.384c0 2.244-1.14 3.806-2.612 3.806a1.188 1.188 0 01-1.235-1.502c.084-.35.196-.711.304-1.063.197-.638.385-1.245.385-1.704a1.046 1.046 0 00-1.051-1.188c-.832 0-1.503.867-1.503 2.019-.006.407.07.811.226 1.188l-.98 4.156a7.86 7.86 0 000 2.37 8.231 8.231 0 01-1.818-1.002 8.312 8.312 0 01-2.964-4.027A8.24 8.24 0 013.75 12z" clip-rule="evenodd"/>
</svg>
