<svg xmlns="http://www.w3.org/2000/svg" fill="currentColor" viewBox="0 0 24 24">
  <path fill-rule="evenodd" d="M5.788 14.02a.746.746 0 00.132.031 456.056 456.056 0 01.845 2.002c.502 1.202 1.008 2.44 1.12 2.796.139.438.285.736.445.94.083.104.178.196.29.266a.88.88 0 00.186.088c.32.12.612.07.795.009a1.313 1.313 0 00.304-.15L9.91 20l2.826-1.762 3.265 2.502c.048.037.1.068.156.093.392.17.772.23 1.13.182.356-.05.64-.199.85-.368a1.994 1.994 0 00.564-.728l.009-.022.003-.008.002-.004v-.002l.001-.001a.748.748 0 00.04-.133l2.98-15.025a.752.752 0 00.014-.146c0-.44-.166-.859-.555-1.112-.334-.217-.705-.227-.94-.209-.252.02-.486.082-.643.132a3.451 3.451 0 00-.26.094l-.011.005-16.714 6.556-.002.001a2.296 2.296 0 00-.167.069 2.522 2.522 0 00-.38.212c-.227.155-.75.581-.661 1.285.07.56.454.905.689 1.071.128.091.25.156.34.199.04.02.126.054.164.07l.009.003 3.169 1.067zm14.138-9.152h-.002a.78.78 0 01-.026.011L3.164 11.444a.818.818 0 01-.026.01l-.01.003a1.126 1.126 0 00-.09.04.854.854 0 00.086.043l3.142 1.058a.75.75 0 01.16.076l10.377-6.075.01-.005a2.012 2.012 0 01.124-.068 2.05 2.05 0 01.317-.131c.09-.028.357-.107.645-.014a.854.854 0 01.588.689.84.84 0 01.003.424c-.07.275-.262.489-.438.653-.15.14-2.095 2.016-4.014 3.868l-2.613 2.52-.465.45 5.872 4.502a.536.536 0 00.251.04.229.229 0 00.117-.052.495.495 0 00.104-.12v-.001l2.891-14.573a1.858 1.858 0 00-.267.086h-.002zm-8.461 12.394l-1.172-.898-.284 1.805 1.456-.907zm-2.246-2.68l1.165-1.125 2.612-2.522.973-.938-6.52 3.817.035.082a339.2 339.2 0 011.22 2.92l.283-1.8a.747.747 0 01.232-.435z" clip-rule="evenodd"/>
</svg>
