<svg xmlns="http://www.w3.org/2000/svg" fill="none" viewBox="0 0 24 24">
  <path fill="currentColor" fill-rule="evenodd" d="M15.021 3.343c.509-.087 1.078-.116 1.614-.025a4.85 4.85 0 012.54 1.273c.456.01.905-.08 1.302-.208a5.366 5.366 0 001.098-.501l.009-.006a.75.75 0 011.042 1.037c-.207.315-.496.877-.819 1.507l-.155.301c-.185.36-.375.724-.552 1.036-.111.196-.23.395-.35.567v.274A12.34 12.34 0 018.287 21.03a12.32 12.32 0 01-6.694-1.97.75.75 0 01.5-1.375 7.47 7.47 0 004.033-.642 4.857 4.857 0 01-2.61-2.922.75.75 0 01.156-.733A4.848 4.848 0 012.05 9.794V9.741a.75.75 0 01.553-.724A4.84 4.84 0 012.09 6.84c0-.857.223-1.699.65-2.442a.75.75 0 011.232-.1 10.89 10.89 0 007.006 3.93 4.848 4.848 0 012.562-4.406c.402-.214.934-.385 1.482-.479zM3.743 10.891a3.35 3.35 0 002.503 2.164.75.75 0 01.072 1.453c-.272.083-.551.14-.834.173a3.358 3.358 0 002.59 1.3.75.75 0 01.45 1.339 8.97 8.97 0 01-3.548 1.695 10.82 10.82 0 003.313.516h.009A10.84 10.84 0 0019.25 8.606v-.535a.75.75 0 01.186-.495c.07-.079.19-.261.36-.56.16-.282.338-.622.523-.981l.033-.066a4.993 4.993 0 01-1.593.097.75.75 0 01-.47-.237 3.35 3.35 0 00-1.904-1.032 3.42 3.42 0 00-1.11.025 3.605 3.605 0 00-1.028.323 3.35 3.35 0 00-1.678 3.74.75.75 0 01-.767.925 12.39 12.39 0 01-8.149-3.627 3.41 3.41 0 00-.063.657v.002a3.34 3.34 0 001.486 2.785A.75.75 0 014.64 11a4.798 4.798 0 01-.897-.109z" clip-rule="evenodd"/>
</svg>
