<svg xmlns="http://www.w3.org/2000/svg" width="24" height="24" fill="currentColor" viewBox="0 0 24 24">
  <path  fill-rule="evenodd" d="M23.405 16.865a11.394 11.394 0 00-2.123-2.964 15.527 15.527 0 00-.905-.94l-.038-.037a18.573 18.573 0 01-.346-.345 29.72 29.72 0 003.01-5.237l.033-.074.023-.078c.109-.363.233-1.053-.207-1.677-.456-.644-1.185-.76-1.674-.76h-2.247a2.232 2.232 0 00-2.19 1.442 17.506 17.506 0 01-1.806 3.271V6.833c0-.34-.032-.91-.397-1.39-.436-.576-1.067-.69-1.505-.69H9.467a1.813 1.813 0 00-1.85 1.682l-.003.045v.045c0 .485.192.843.346 1.068.069.101.142.193.189.251l.01.013c.05.062.083.103.116.149.088.118.213.302.249.776v1.473a19.785 19.785 0 01-1.751-3.792l-.008-.022-.008-.021c-.122-.319-.317-.783-.708-1.137-.456-.415-.996-.53-1.487-.53h-2.28c-.497 0-1.096.116-1.543.587C.3 5.804.25 6.36.25 6.654v.134l.028.13a19.43 19.43 0 003.801 8.02 10.151 10.151 0 007.893 4.692l.041.003h.042c.726 0 1.483-.063 2.052-.442.767-.512.828-1.297.828-1.689v-1.138c.197.16.441.374.74.662.362.362.65.676.897.95l.132.146c.192.214.381.425.553.598.216.217.483.456.817.633.363.191.744.278 1.148.278h2.281c.481 0 1.17-.114 1.655-.676.528-.612.488-1.363.322-1.902l-.03-.097-.045-.091zm-5.72.106a26.137 26.137 0 00-.957-1.014l-.003-.003c-1.357-1.308-1.99-1.535-2.438-1.535-.239 0-.502.026-.673.24a.774.774 0 00-.147.348 2.452 2.452 0 00-.032.444v2.051c0 .255-.042.362-.16.44-.157.105-.492.19-1.211.19a8.65 8.65 0 01-6.752-4.052l-.008-.013-.01-.012A17.93 17.93 0 011.75 6.63c.004-.13.032-.209.078-.257.047-.05.162-.12.454-.12h2.28c.253 0 .385.056.48.141.106.098.2.263.312.557.56 1.646 1.316 3.186 2.033 4.317.358.566.71 1.037 1.028 1.37.159.166.314.304.463.402.143.094.306.169.474.169.088 0 .191-.01.29-.053a.523.523 0 00.25-.232c.103-.188.132-.465.132-.828V8.723c-.053-.818-.3-1.279-.54-1.606a5.66 5.66 0 00-.15-.193l-.013-.016a2.694 2.694 0 01-.122-.16.39.39 0 01-.085-.214.313.313 0 01.324-.282h3.595c.206 0 .275.05.31.097.05.065.092.2.092.484v4.528c0 .538.248.902.608.902.414 0 .713-.251 1.235-.773l.009-.01.008-.009a19.01 19.01 0 002.84-4.722l.004-.012a.732.732 0 01.74-.485h2.3c.312 0 .414.08.448.127.035.05.06.157 0 .367a28.216 28.216 0 01-3.029 5.2l-.008.012c-.115.177-.242.373-.26.597-.02.242.084.461.267.697.133.196.408.465.687.738l.026.026c.292.286.609.596.863.896l.007.007.007.008a9.892 9.892 0 011.865 2.586c.076.26.03.394-.03.463-.069.08-.224.155-.518.155h-2.282a.91.91 0 01-.447-.105 1.96 1.96 0 01-.454-.364c-.143-.143-.298-.316-.488-.527l-.147-.164z" clip-rule="evenodd"/>
</svg>
