<svg xmlns="http://www.w3.org/2000/svg" fill="none" viewBox="0 0 24 24">
  <path fill="currentColor" d="M.25 10.214c0-3.968 3.805-6.964 8.202-6.964 3.498 0 6.6 1.884 7.74 4.65a.198.198 0 01-.172.269c-.372.03-.742.084-1.106.158a.209.209 0 01-.229-.114c-.963-1.979-3.33-3.463-6.233-3.463-3.835 0-6.702 2.568-6.702 5.464 0 1.565.814 3.01 2.183 4.031a.75.75 0 01.3.602v.94l1.549-.43a.75.75 0 01.411.003c.61.179 1.264.287 1.945.313a.208.208 0 01.2.2c.018.427.075.84.167 1.238a.056.056 0 01-.053.068 9.566 9.566 0 01-2.47-.32l-2.297.638a.75.75 0 01-.951-.723v-1.563C1.224 13.965.25 12.201.25 10.214z"/>
  <path fill="currentColor" d="M6.855 8.258a1.065 1.065 0 11-2.13 0 1.065 1.065 0 012.13 0zM11.113 9.323a1.065 1.065 0 100-2.13 1.065 1.065 0 000 2.13zM14.546 15.177a.931.931 0 100-1.862.931.931 0 000 1.862zM20.002 14.246a.931.931 0 11-1.863 0 .931.931 0 011.863 0z"/>
  <path fill="currentColor" fill-rule="evenodd" d="M16.786 9.859c3.71 0 6.96 2.532 6.96 5.928 0 1.68-.81 2.945-2.066 4.001v1.244a.75.75 0 01-.95.723l-1.882-.523a8.101 8.101 0 01-2.058.262c-3.71 0-6.96-2.532-6.96-5.928s3.245-5.707 6.956-5.707zm5.464 5.707c0-2.324-2.311-4.429-5.46-4.429-3.148 0-5.46 2.105-5.46 4.429 0 2.324 2.312 4.428 5.46 4.428.65 0 1.272-.092 1.847-.26a.75.75 0 01.412-.003l1.131.314v-.62a.75.75 0 01.302-.6c1.114-.832 1.768-2.001 1.768-3.26z" clip-rule="evenodd"/>
</svg>
