<svg xmlns="http://www.w3.org/2000/svg" fill="currentColor" viewBox="0 0 24 24">
  <path fill-rule="evenodd" d="M10.386 8.357A.75.75 0 009.25 9v6a.75.75 0 001.136.643l5-3a.75.75 0 000-1.286l-5-3zM13.542 12l-2.792 1.675v-3.35L13.542 12z" clip-rule="evenodd"/>
  <path fill-rule="evenodd" d="M17.03 4.641a64.499 64.499 0 00-10.06 0l-2.241.176a2.975 2.975 0 00-2.703 2.475 28.566 28.566 0 000 9.416 2.975 2.975 0 002.703 2.475l2.24.176c3.349.262 6.713.262 10.062 0l2.24-.176a2.975 2.975 0 002.703-2.475 28.57 28.57 0 000-9.416 2.975 2.975 0 00-2.703-2.475l-2.24-.176zM7.087 6.137a62.998 62.998 0 019.828 0l2.24.175c.676.053 1.229.56 1.34 1.228a27.067 27.067 0 010 8.92 1.475 1.475 0 01-1.34 1.228l-2.24.175c-3.271.256-6.557.256-9.828 0l-2.24-.175a1.475 1.475 0 01-1.34-1.228 27.066 27.066 0 010-8.92 1.475 1.475 0 011.34-1.228l2.24-.175z" clip-rule="evenodd"/>
</svg>
